<?xml version="1.0" encoding="utf-8"?>
<!-- Generator: Adobe Illustrator 25.2.1, SVG Export Plug-In . SVG Version: 6.00 Build 0)  -->
<svg version="1.1" id="Capa_1" xmlns="http://www.w3.org/2000/svg" xmlns:xlink="http://www.w3.org/1999/xlink" x="0px" y="0px"
	 viewBox="0 0 484.9 99.5" style="enable-background:new 0 0 484.9 99.5;" xml:space="preserve">
<style type="text/css">
	.st0{fill:#19213C;}
	.st1{fill:#19213c;}
	.st2{fill:#2A4797;}
	.st3{fill-rule:evenodd;clip-rule:evenodd;fill:#19213C;}
	.st4{fill:#5E5E5E;}
</style>
<g>
	<polygon class="st0" points="93.8,99.5 76.2,99.5 14.2,0 31.9,0 	"/>
	<path class="st0" d="M117.9,99.5H100L68.8,49.3h12.4c11.1,0,18.2-6.5,18.2-16.6v-0.3c0-10.7-6.8-16.4-18.3-16.4H48L38.1,0h44.3
		c11.1,0,19.8,3.7,25.5,9.9c4.7,5.4,7.3,12.8,7.3,21.4v0.3c0,16.3-8.7,26.2-21,30.1L117.9,99.5z"/>
	<polygon class="st1" points="70.1,99.5 52.5,99.5 8.1,28.3 25.8,28.3 	"/>
	<polygon class="st2" points="45.6,99.5 27.9,99.5 0,54.7 17.7,54.7 	"/>
	<g>
		<g>
			<path class="st0" d="M474.9,60.2V26.3h8.6v43.8L474.9,60.2z M441.9,46.9v33.6h-8.1V26.3l49.7,54.2h-11.3L441.9,46.9z"/>
		</g>
	</g>
	<g>
		<path class="st0" d="M176.9,57.1c1.8,0,3.4-0.3,4.9-1c1.5-0.7,2.8-1.6,3.8-2.7c1.1-1.1,1.9-2.4,2.6-3.8c0.6-1.4,1-2.9,1-4.5
			c0-1.5-0.3-3-1-4.4c-0.6-1.5-1.5-2.7-2.6-3.8c-1.1-1.1-2.3-2-3.8-2.7c-1.5-0.7-3.1-1-4.9-1h-4.2h-7.4h-8.7v-6.8h19.2
			c2.4,0,4.7,0.3,6.8,0.8c2.1,0.6,4.1,1.3,5.8,2.3c4.3,2.5,7.3,5.9,8.8,10.4c0.1,0.2,0.1,0.5,0.2,0.7c0.1,0.2,0.1,0.4,0.2,0.7v0.4
			c0.1,0.2,0.2,0.5,0.2,0.8c0,0.3,0.1,0.6,0.1,0.9c0.1,0.4,0.1,0.7,0.1,0.9v0.9v0.2v0.9c0,0.3,0,0.6-0.1,0.9v0.1
			c-0.1,0.3-0.1,0.6-0.1,0.8c0,0.3-0.1,0.5-0.2,0.8v0.3c-0.2,0.5-0.3,1-0.4,1.4c-0.8,2.2-1.9,4.1-3.3,5.9c-1.5,1.7-3.3,3.2-5.4,4.4
			c-0.1,0.1-0.2,0.2-0.4,0.2c-0.2,0-0.3,0.1-0.4,0.2l10.4,18.4H189l-9.1-16c-0.6,0.1-1.3,0.2-1.9,0.2c-0.6,0-1.3,0.1-2.1,0.1h-10.5
			v3.7v12h-8.6V57.1v-0.3l8.6,0.3h7.4H176.9z"/>
	</g>
	<g>
		<g>
			<path class="st0" d="M386.6,26.3c4,0,7.7,0.7,11.2,2.1c3.5,1.4,6.6,3.3,9.2,5.7c2.6,2.4,4.6,5.3,6.1,8.5
				c1.5,3.3,2.2,6.8,2.2,10.5c0,3.7-0.7,7.1-2.2,10.4c-1.5,3.2-3.5,6.1-6.1,8.5c-2.6,2.4-5.6,4.3-9.2,5.7c-3.5,1.4-7.3,2.1-11.2,2.1
				c-4,0-7.7-0.7-11.2-2.1c-3.5-1.4-6.5-3.3-9.1-5.7c-2.6-2.4-4.6-5.2-6.1-8.5c-1.5-3.2-2.2-6.7-2.2-10.4c0-3.7,0.7-7.2,2.2-10.5
				c1.5-3.3,3.5-6.1,6.1-8.5c2.6-2.4,5.6-4.3,9.1-5.7C378.9,27,382.6,26.3,386.6,26.3z M386.6,72.4c2.7,0,5.3-0.5,7.7-1.5
				c2.4-1,4.6-2.4,6.4-4.1c1.8-1.7,3.2-3.8,4.3-6.1c1-2.3,1.6-4.8,1.6-7.5c0-2.7-0.5-5.2-1.6-7.5c-1-2.4-2.5-4.4-4.3-6.2
				c-1.8-1.8-3.9-3.1-6.4-4.2c-2.4-1-5-1.5-7.7-1.5s-5.3,0.5-7.7,1.5c-2.4,1-4.5,2.4-6.3,4.2c-1.8,1.8-3.2,3.8-4.3,6.2
				c-1,2.4-1.6,4.9-1.6,7.5c0,2.7,0.5,5.1,1.6,7.5c1,2.3,2.5,4.4,4.3,6.1c1.8,1.7,3.9,3.1,6.3,4.1C381.3,71.9,383.9,72.4,386.6,72.4
				z"/>
		</g>
	</g>
	<g>
		<path class="st3" d="M258.5,26.3h8.5v35.6c0,2.5-0.5,4.8-1.6,6.9c-1,2.1-2.5,4-4.3,5.6c-1.8,1.6-3.9,2.8-6.4,3.7
			c-2.4,0.9-5,1.4-7.8,1.4c-2.7,0-5.3-0.5-7.7-1.4c-2.4-0.9-4.5-2.2-6.3-3.7c-1.8-1.6-3.2-3.4-4.2-5.6c-1-2.1-1.5-4.4-1.5-6.9V26.3
			h8.5v35.6c0,1.4,0.3,2.7,0.9,4c0.6,1.2,1.4,2.3,2.4,3.3c1,0.9,2.2,1.7,3.6,2.2c1.4,0.5,2.9,0.8,4.4,0.8c1.6,0,3.1-0.3,4.5-0.8
			c1.4-0.5,2.6-1.3,3.7-2.2c1-0.9,1.9-2,2.5-3.3c0.6-1.2,0.9-2.6,0.9-4V26.3z"/>
	</g>
	<g>
		<path class="st0" d="M341,63.1c-0.4,0.9-0.9,1.8-1.4,2.6c-1.7,2.8-3.7,5.2-6.2,7.2c-2.5,2-5.3,3.6-8.5,4.8
			c-3.2,1.2-6.6,1.7-10.2,1.7c-3.9,0-7.6-0.7-11.1-2.1c-3.5-1.4-6.5-3.3-9.1-5.7c-2.6-2.4-4.6-5.2-6.1-8.4
			c-1.5-3.2-2.2-6.7-2.2-10.3c0-3.7,0.7-7.1,2.2-10.3c1.5-3.2,3.5-6,6.1-8.4c2.6-2.4,5.6-4.3,9.1-5.7c3.5-1.4,7.2-2.1,11.1-2.1
			c3,0,5.8,0.4,8.5,1.2c2.7,0.8,5.2,1.9,7.4,3.4c2.3,1.5,4.3,3.2,6,5.2c1.8,2,3.2,4.2,4.3,6.6h-9.7c-1.7-2.7-4-4.9-7-6.5
			c-2.9-1.6-6.1-2.5-9.6-2.5c-2.7,0-5.3,0.5-7.7,1.5c-2.4,1-4.5,2.4-6.3,4.1c-1.8,1.7-3.2,3.8-4.2,6.1c-1,2.3-1.6,4.8-1.6,7.5
			c0,2.7,0.5,5.2,1.6,7.5c1,2.3,2.5,4.4,4.2,6.1c1.8,1.7,3.9,3.1,6.3,4.1c2.4,1,5,1.5,7.7,1.5c2.4,0,4.6-0.4,6.8-1.2
			c2.1-0.8,4.1-1.9,5.8-3.2c1.6-1.3,3-2.9,4.2-4.7H341z"/>
	</g>
	<g>
		<path class="st4" d="M168.2,17.6c-1.3,0.7-2.8,1.1-4.5,1.1c-0.8,0-1.6-0.1-2.3-0.4c-0.7-0.3-1.3-0.7-1.8-1.1
			c-0.5-0.5-0.9-1.1-1.2-1.8c-0.3-0.7-0.4-1.5-0.4-2.3c0-0.9,0.1-1.7,0.4-2.4c0.3-0.7,0.7-1.3,1.2-1.8c0.5-0.5,1.1-0.9,1.8-1.2
			c0.7-0.3,1.5-0.4,2.3-0.4c0.8,0,1.6,0.1,2.3,0.3c0.7,0.2,1.4,0.6,1.9,1.1l-1.4,1.4c-0.3-0.3-0.8-0.6-1.3-0.8
			c-0.5-0.2-1-0.3-1.6-0.3c-0.6,0-1.1,0.1-1.5,0.3c-0.5,0.2-0.8,0.5-1.2,0.8c-0.3,0.4-0.6,0.8-0.8,1.2c-0.2,0.5-0.3,1-0.3,1.5
			c0,0.6,0.1,1.1,0.3,1.6c0.2,0.5,0.4,0.9,0.8,1.3c0.3,0.4,0.7,0.6,1.2,0.8c0.5,0.2,1,0.3,1.5,0.3c0.5,0,1,0,1.4-0.1
			c0.4-0.1,0.8-0.2,1.2-0.4v-2.6H164v-1.7h4.1V17.6z"/>
		<path class="st4" d="M173.5,7.6h3.8c0.5,0,1,0,1.5,0.1s0.9,0.3,1.3,0.5c0.4,0.2,0.7,0.6,0.9,0.9c0.2,0.4,0.3,0.9,0.3,1.5
			c0,0.8-0.2,1.4-0.6,2c-0.4,0.5-1.1,0.9-1.9,1l2.9,4.8h-2.3l-2.5-4.6h-1.4v4.6h-1.9V7.6z M176.9,12.2c0.3,0,0.6,0,0.8,0
			c0.3,0,0.5-0.1,0.8-0.2c0.2-0.1,0.4-0.2,0.6-0.4c0.1-0.2,0.2-0.5,0.2-0.8c0-0.3-0.1-0.6-0.2-0.8c-0.1-0.2-0.3-0.3-0.5-0.4
			c-0.2-0.1-0.5-0.2-0.7-0.2c-0.3,0-0.5,0-0.8,0h-1.7v2.9H176.9z"/>
		<path class="st4" d="M194.9,14.4c0,0.7-0.1,1.2-0.3,1.8c-0.2,0.5-0.5,1-0.9,1.3c-0.4,0.4-0.8,0.6-1.4,0.8
			c-0.5,0.2-1.1,0.3-1.7,0.3c-0.6,0-1.2-0.1-1.7-0.3c-0.5-0.2-1-0.5-1.4-0.8c-0.4-0.4-0.7-0.8-0.9-1.3c-0.2-0.5-0.3-1.1-0.3-1.8V7.6
			h1.9v6.8c0,0.3,0,0.5,0.1,0.8c0.1,0.3,0.2,0.6,0.4,0.8c0.2,0.2,0.4,0.4,0.7,0.6c0.3,0.2,0.7,0.2,1.2,0.2c0.5,0,0.8-0.1,1.2-0.2
			c0.3-0.2,0.6-0.4,0.7-0.6c0.2-0.2,0.3-0.5,0.4-0.8c0.1-0.3,0.1-0.6,0.1-0.8V7.6h1.9V14.4z"/>
		<path class="st4" d="M200.3,7.6h3.6c0.5,0,1,0.1,1.5,0.2c0.5,0.1,0.9,0.3,1.3,0.5c0.4,0.2,0.7,0.6,0.9,1c0.2,0.4,0.3,0.9,0.3,1.5
			c0,0.7-0.1,1.2-0.4,1.7c-0.2,0.4-0.6,0.7-0.9,1c-0.4,0.2-0.9,0.4-1.4,0.5c-0.5,0.1-1.1,0.1-1.6,0.1h-1.4v4.5h-1.9V7.6z
			 M203.4,12.3c0.3,0,0.6,0,0.9,0c0.3,0,0.6-0.1,0.8-0.2c0.2-0.1,0.5-0.3,0.6-0.5c0.2-0.2,0.2-0.5,0.2-0.9c0-0.3-0.1-0.6-0.2-0.8
			c-0.1-0.2-0.3-0.4-0.6-0.5c-0.2-0.1-0.5-0.2-0.7-0.2c-0.3,0-0.5,0-0.8,0h-1.4v3H203.4z"/>
		<path class="st4" d="M212.1,13.1c0-0.9,0.1-1.7,0.4-2.4c0.3-0.7,0.7-1.3,1.2-1.8c0.5-0.5,1.1-0.9,1.8-1.2c0.7-0.3,1.5-0.4,2.3-0.4
			c0.8,0,1.6,0.1,2.3,0.4c0.7,0.3,1.3,0.6,1.8,1.1c0.5,0.5,0.9,1.1,1.2,1.8c0.3,0.7,0.4,1.5,0.4,2.4c0,0.8-0.1,1.6-0.4,2.3
			c-0.3,0.7-0.7,1.3-1.2,1.8c-0.5,0.5-1.1,0.9-1.8,1.2c-0.7,0.3-1.5,0.4-2.3,0.4c-0.8,0-1.6-0.1-2.3-0.4c-0.7-0.3-1.3-0.7-1.8-1.1
			c-0.5-0.5-0.9-1.1-1.2-1.8C212.2,14.7,212.1,13.9,212.1,13.1z M214.1,12.9c0,0.6,0.1,1.1,0.3,1.6c0.2,0.5,0.4,0.9,0.8,1.3
			c0.3,0.4,0.7,0.6,1.2,0.8c0.5,0.2,1,0.3,1.5,0.3c0.6,0,1.1-0.1,1.5-0.3c0.5-0.2,0.9-0.5,1.2-0.8c0.3-0.4,0.6-0.8,0.8-1.3
			c0.2-0.5,0.3-1,0.3-1.6c0-0.5-0.1-1-0.3-1.5c-0.2-0.5-0.4-0.9-0.8-1.2c-0.3-0.4-0.7-0.6-1.2-0.8c-0.5-0.2-1-0.3-1.5-0.3
			c-0.6,0-1.1,0.1-1.5,0.3c-0.5,0.2-0.8,0.5-1.2,0.8c-0.3,0.4-0.6,0.8-0.8,1.2C214.2,11.9,214.1,12.4,214.1,12.9z"/>
	</g>
	<g>
		<path class="st4" d="M163.2,92.5c-0.3-0.3-0.6-0.6-0.8-0.7c-0.3-0.1-0.5-0.2-0.8-0.2c-0.4,0-0.8,0.1-1.1,0.2
			c-0.3,0.2-0.6,0.4-0.9,0.7c-0.2,0.3-0.4,0.6-0.6,1c-0.1,0.4-0.2,0.8-0.2,1.2c0,0.5,0.1,0.9,0.2,1.3c0.1,0.4,0.3,0.7,0.6,1
			c0.2,0.3,0.5,0.5,0.9,0.7c0.3,0.2,0.7,0.2,1.1,0.2c0.3,0,0.6-0.1,0.9-0.3c0.3-0.2,0.6-0.4,0.8-0.8l1.2,0.9
			c-0.4,0.5-0.8,0.9-1.3,1.2c-0.5,0.2-1.1,0.4-1.7,0.4c-0.6,0-1.2-0.1-1.7-0.3c-0.5-0.2-1-0.5-1.3-0.9c-0.4-0.4-0.7-0.9-0.9-1.4
			c-0.2-0.6-0.3-1.2-0.3-1.9c0-0.7,0.1-1.3,0.3-1.9c0.2-0.6,0.5-1.1,0.9-1.5c0.4-0.4,0.8-0.7,1.3-0.9c0.5-0.2,1.1-0.3,1.7-0.3
			c0.5,0,1,0.1,1.5,0.3c0.5,0.2,0.9,0.6,1.3,1.1L163.2,92.5z"/>
		<path class="st4" d="M171.8,94.9c0-0.7,0.1-1.3,0.3-1.9c0.2-0.6,0.5-1.1,0.9-1.5c0.4-0.4,0.8-0.7,1.3-0.9c0.5-0.2,1.1-0.3,1.7-0.3
			c0.6,0,1.2,0.1,1.7,0.3c0.5,0.2,1,0.5,1.3,0.9c0.4,0.4,0.7,0.9,0.9,1.5c0.2,0.6,0.3,1.2,0.3,1.9c0,0.7-0.1,1.3-0.3,1.9
			c-0.2,0.6-0.5,1-0.9,1.4c-0.4,0.4-0.8,0.7-1.3,0.9c-0.5,0.2-1.1,0.3-1.7,0.4c-0.6,0-1.2-0.1-1.7-0.3c-0.5-0.2-1-0.5-1.3-0.9
			c-0.4-0.4-0.7-0.9-0.9-1.4C171.9,96.2,171.8,95.6,171.8,94.9z M173.3,94.8c0,0.5,0.1,0.9,0.2,1.3c0.1,0.4,0.3,0.7,0.6,1
			c0.2,0.3,0.5,0.5,0.9,0.7c0.3,0.2,0.7,0.2,1.1,0.2c0.4,0,0.8-0.1,1.1-0.2c0.3-0.2,0.6-0.4,0.9-0.7c0.2-0.3,0.4-0.6,0.6-1
			c0.1-0.4,0.2-0.8,0.2-1.3c0-0.4-0.1-0.8-0.2-1.2c-0.1-0.4-0.3-0.7-0.6-1c-0.2-0.3-0.5-0.5-0.9-0.7c-0.3-0.2-0.7-0.2-1.1-0.2
			c-0.4,0-0.8,0.1-1.1,0.2c-0.3,0.2-0.6,0.4-0.9,0.7c-0.2,0.3-0.4,0.6-0.6,1C173.4,93.9,173.3,94.3,173.3,94.8z"/>
		<path class="st4" d="M188.4,90.5h1.9l3.9,6.5h0v-6.5h1.4v8.7h-1.8l-3.9-6.7h0v6.7h-1.4V90.5z"/>
		<path class="st4" d="M208,92.4c-0.2-0.2-0.4-0.4-0.6-0.5c-0.3-0.1-0.5-0.2-0.8-0.2c-0.2,0-0.3,0-0.5,0.1c-0.2,0-0.3,0.1-0.4,0.2
			c-0.1,0.1-0.2,0.2-0.3,0.4c-0.1,0.1-0.1,0.3-0.1,0.5c0,0.3,0.1,0.5,0.3,0.7c0.2,0.2,0.4,0.3,0.7,0.4c0.3,0.1,0.6,0.2,0.9,0.3
			c0.3,0.1,0.6,0.3,0.9,0.4c0.3,0.2,0.5,0.4,0.7,0.8c0.2,0.3,0.3,0.7,0.3,1.2c0,0.5-0.1,0.9-0.2,1.2c-0.2,0.3-0.4,0.6-0.6,0.9
			c-0.3,0.2-0.6,0.4-0.9,0.5c-0.4,0.1-0.7,0.2-1.1,0.2c-0.5,0-1-0.1-1.4-0.3c-0.5-0.2-0.9-0.5-1.2-0.9l1.1-1.1
			c0.2,0.3,0.4,0.5,0.7,0.7c0.3,0.2,0.6,0.2,0.9,0.2c0.2,0,0.3,0,0.5-0.1c0.2-0.1,0.3-0.1,0.5-0.2c0.1-0.1,0.2-0.2,0.3-0.4
			c0.1-0.2,0.1-0.3,0.1-0.5c0-0.3-0.1-0.6-0.3-0.7c-0.2-0.2-0.4-0.3-0.7-0.4s-0.6-0.2-0.9-0.3c-0.3-0.1-0.6-0.3-0.9-0.4
			c-0.3-0.2-0.5-0.4-0.7-0.7c-0.2-0.3-0.3-0.7-0.3-1.2c0-0.5,0.1-0.8,0.3-1.2c0.2-0.3,0.4-0.6,0.7-0.8c0.3-0.2,0.6-0.4,0.9-0.5
			c0.4-0.1,0.7-0.2,1.1-0.2c0.4,0,0.8,0.1,1.2,0.2c0.4,0.1,0.7,0.4,1.1,0.7L208,92.4z"/>
		<path class="st4" d="M218.9,91.9h-2.4v-1.4h6.3v1.4h-2.4v7.3h-1.4V91.9z"/>
		<path class="st4" d="M230.5,90.5h2.8c0.4,0,0.8,0,1.1,0.1c0.4,0.1,0.7,0.2,1,0.4c0.3,0.2,0.5,0.4,0.7,0.8c0.2,0.3,0.2,0.7,0.2,1.2
			c0,0.6-0.2,1.2-0.5,1.6c-0.3,0.4-0.8,0.7-1.4,0.8l2.1,3.9h-1.7l-1.8-3.7h-1v3.7h-1.4V90.5z M233,94.2c0.2,0,0.4,0,0.6,0
			s0.4-0.1,0.6-0.1c0.2-0.1,0.3-0.2,0.4-0.4c0.1-0.2,0.2-0.4,0.2-0.7c0-0.3,0-0.5-0.1-0.6c-0.1-0.2-0.2-0.3-0.4-0.4
			c-0.2-0.1-0.3-0.1-0.5-0.2c-0.2,0-0.4,0-0.6,0h-1.2v2.4H233z"/>
		<path class="st4" d="M250.7,96c0,0.5-0.1,1-0.2,1.4c-0.2,0.4-0.4,0.8-0.7,1.1c-0.3,0.3-0.6,0.5-1,0.7c-0.4,0.2-0.8,0.2-1.3,0.2
			s-0.9-0.1-1.3-0.2c-0.4-0.2-0.7-0.4-1-0.7c-0.3-0.3-0.5-0.7-0.7-1.1c-0.2-0.4-0.2-0.9-0.2-1.4v-5.5h1.4v5.5c0,0.2,0,0.4,0.1,0.7
			c0.1,0.2,0.2,0.4,0.3,0.6c0.1,0.2,0.3,0.4,0.6,0.5c0.2,0.1,0.5,0.2,0.8,0.2s0.6-0.1,0.8-0.2c0.2-0.1,0.4-0.3,0.6-0.5
			c0.1-0.2,0.2-0.4,0.3-0.6c0.1-0.2,0.1-0.5,0.1-0.7v-5.5h1.4V96z"/>
		<path class="st4" d="M264.7,92.5c-0.3-0.3-0.6-0.6-0.9-0.7c-0.3-0.1-0.5-0.2-0.8-0.2c-0.4,0-0.8,0.1-1.1,0.2
			c-0.3,0.2-0.6,0.4-0.9,0.7c-0.2,0.3-0.4,0.6-0.6,1c-0.1,0.4-0.2,0.8-0.2,1.2c0,0.5,0.1,0.9,0.2,1.3c0.1,0.4,0.3,0.7,0.6,1
			c0.2,0.3,0.5,0.5,0.9,0.7c0.3,0.2,0.7,0.2,1.1,0.2c0.3,0,0.6-0.1,0.9-0.3c0.3-0.2,0.6-0.4,0.8-0.8l1.2,0.9
			c-0.4,0.5-0.8,0.9-1.3,1.2c-0.5,0.2-1.1,0.4-1.7,0.4c-0.6,0-1.2-0.1-1.7-0.3c-0.5-0.2-1-0.5-1.3-0.9c-0.4-0.4-0.7-0.9-0.9-1.4
			c-0.2-0.6-0.3-1.2-0.3-1.9c0-0.7,0.1-1.3,0.3-1.9c0.2-0.6,0.5-1.1,0.9-1.5c0.4-0.4,0.8-0.7,1.3-0.9c0.5-0.2,1.1-0.3,1.7-0.3
			c0.5,0,1,0.1,1.5,0.3c0.5,0.2,0.9,0.6,1.3,1.1L264.7,92.5z"/>
		<path class="st4" d="M279.1,92.5c-0.3-0.3-0.6-0.6-0.9-0.7c-0.3-0.1-0.5-0.2-0.8-0.2c-0.4,0-0.8,0.1-1.1,0.2
			c-0.3,0.2-0.6,0.4-0.9,0.7c-0.2,0.3-0.4,0.6-0.6,1c-0.1,0.4-0.2,0.8-0.2,1.2c0,0.5,0.1,0.9,0.2,1.3c0.1,0.4,0.3,0.7,0.6,1
			c0.2,0.3,0.5,0.5,0.9,0.7c0.3,0.2,0.7,0.2,1.1,0.2c0.3,0,0.6-0.1,0.9-0.3c0.3-0.2,0.6-0.4,0.8-0.8l1.2,0.9
			c-0.4,0.5-0.8,0.9-1.3,1.2c-0.5,0.2-1.1,0.4-1.7,0.4c-0.6,0-1.2-0.1-1.7-0.3c-0.5-0.2-1-0.5-1.3-0.9c-0.4-0.4-0.7-0.9-0.9-1.4
			c-0.2-0.6-0.3-1.2-0.3-1.9c0-0.7,0.1-1.3,0.3-1.9c0.2-0.6,0.5-1.1,0.9-1.5c0.4-0.4,0.8-0.7,1.3-0.9c0.5-0.2,1.1-0.3,1.7-0.3
			c0.5,0,1,0.1,1.5,0.3c0.5,0.2,0.9,0.6,1.3,1.1L279.1,92.5z"/>
		<path class="st4" d="M288.1,90.5h1.4v8.7h-1.4V90.5z"/>
		<path class="st4" d="M297.6,94.9c0-0.7,0.1-1.3,0.3-1.9c0.2-0.6,0.5-1.1,0.9-1.5c0.4-0.4,0.8-0.7,1.3-0.9c0.5-0.2,1.1-0.3,1.7-0.3
			c0.6,0,1.2,0.1,1.7,0.3c0.5,0.2,1,0.5,1.3,0.9c0.4,0.4,0.7,0.9,0.9,1.5c0.2,0.6,0.3,1.2,0.3,1.9c0,0.7-0.1,1.3-0.3,1.9
			c-0.2,0.6-0.5,1-0.9,1.4c-0.4,0.4-0.8,0.7-1.3,0.9c-0.5,0.2-1.1,0.3-1.7,0.4c-0.6,0-1.2-0.1-1.7-0.3c-0.5-0.2-1-0.5-1.3-0.9
			c-0.4-0.4-0.7-0.9-0.9-1.4C297.7,96.2,297.6,95.6,297.6,94.9z M299,94.8c0,0.5,0.1,0.9,0.2,1.3c0.1,0.4,0.3,0.7,0.6,1
			c0.2,0.3,0.5,0.5,0.9,0.7c0.3,0.2,0.7,0.2,1.1,0.2c0.4,0,0.8-0.1,1.1-0.2c0.3-0.2,0.6-0.4,0.9-0.7c0.2-0.3,0.4-0.6,0.6-1
			c0.1-0.4,0.2-0.8,0.2-1.3c0-0.4-0.1-0.8-0.2-1.2c-0.1-0.4-0.3-0.7-0.6-1c-0.2-0.3-0.5-0.5-0.9-0.7c-0.3-0.2-0.7-0.2-1.1-0.2
			c-0.4,0-0.8,0.1-1.1,0.2c-0.3,0.2-0.6,0.4-0.9,0.7c-0.2,0.3-0.4,0.6-0.6,1C299.1,93.9,299,94.3,299,94.8z M302.4,88.1h1.5
			l-1.6,1.8h-1.1L302.4,88.1z"/>
		<path class="st4" d="M314.1,90.5h1.9l3.9,6.5h0v-6.5h1.4v8.7h-1.8l-3.9-6.7h0v6.7h-1.4V90.5z"/>
		<path class="st4" d="M345.5,97.1l1.7,2.1h-1.7l-0.8-1c-0.3,0.4-0.7,0.7-1,0.9c-0.4,0.2-0.8,0.3-1.3,0.3c-0.4,0-0.7-0.1-1-0.2
			c-0.3-0.1-0.6-0.3-0.9-0.5c-0.2-0.2-0.4-0.5-0.6-0.8c-0.2-0.3-0.2-0.7-0.2-1.1c0-0.3,0-0.6,0.1-0.8c0.1-0.3,0.2-0.5,0.4-0.7
			c0.2-0.2,0.3-0.4,0.5-0.6c0.2-0.2,0.4-0.3,0.7-0.4c-0.1-0.2-0.2-0.3-0.4-0.5c-0.1-0.1-0.2-0.3-0.3-0.5s-0.1-0.3-0.2-0.5
			c-0.1-0.2-0.1-0.4-0.1-0.6c0-0.4,0.1-0.7,0.2-0.9c0.1-0.3,0.3-0.5,0.5-0.7c0.2-0.2,0.5-0.3,0.7-0.4c0.3-0.1,0.6-0.1,0.9-0.1
			c0.3,0,0.6,0,0.9,0.1s0.5,0.2,0.7,0.4c0.2,0.2,0.4,0.4,0.5,0.6c0.1,0.3,0.2,0.6,0.2,0.9c0,0.3,0,0.5-0.1,0.7
			c-0.1,0.2-0.2,0.4-0.4,0.6s-0.3,0.4-0.5,0.5c-0.2,0.2-0.4,0.3-0.6,0.4l1.3,1.5l0.9-1.5h1.6L345.5,97.1z M342.1,95.3
			c-0.1,0.1-0.3,0.2-0.4,0.3c-0.1,0.1-0.2,0.2-0.3,0.3c-0.1,0.1-0.2,0.2-0.3,0.4c-0.1,0.1-0.1,0.3-0.1,0.5c0,0.2,0,0.4,0.1,0.5
			c0.1,0.2,0.2,0.3,0.3,0.4c0.1,0.1,0.3,0.2,0.4,0.3c0.1,0.1,0.3,0.1,0.5,0.1c0.3,0,0.6-0.1,0.8-0.3c0.2-0.2,0.4-0.4,0.7-0.6
			L342.1,95.3z M342.7,91.6c-0.3,0-0.5,0.1-0.7,0.2c-0.2,0.2-0.3,0.4-0.3,0.6c0,0.1,0,0.2,0.1,0.3c0,0.1,0.1,0.2,0.2,0.3
			c0.1,0.1,0.2,0.2,0.2,0.3c0.1,0.1,0.2,0.2,0.3,0.3c0.1-0.1,0.2-0.1,0.4-0.2c0.1-0.1,0.2-0.2,0.4-0.3c0.1-0.1,0.2-0.2,0.3-0.4
			c0.1-0.1,0.1-0.3,0.1-0.4c0-0.2-0.1-0.4-0.3-0.6C343.1,91.7,342.9,91.6,342.7,91.6z"/>
		<path class="st4" d="M365.1,90.5h2.7c0.4,0,0.8,0,1.1,0.1c0.4,0.1,0.7,0.2,0.9,0.4c0.3,0.2,0.5,0.5,0.6,0.8
			c0.2,0.3,0.2,0.7,0.2,1.2c0,0.5-0.1,1-0.3,1.3c-0.2,0.3-0.4,0.6-0.7,0.8c-0.3,0.2-0.6,0.3-1,0.4c-0.4,0.1-0.8,0.1-1.2,0.1h-1v3.6
			h-1.4V90.5z M367.3,94.3c0.2,0,0.4,0,0.6,0c0.2,0,0.4-0.1,0.6-0.1c0.2-0.1,0.3-0.2,0.4-0.4c0.1-0.2,0.2-0.4,0.2-0.7
			c0-0.3-0.1-0.5-0.2-0.6c-0.1-0.2-0.2-0.3-0.4-0.4c-0.2-0.1-0.3-0.1-0.6-0.2c-0.2,0-0.4,0-0.6,0h-1v2.4H367.3z"/>
		<path class="st4" d="M378.7,90.5h2.8c0.4,0,0.8,0,1.1,0.1c0.4,0.1,0.7,0.2,1,0.4c0.3,0.2,0.5,0.4,0.7,0.8c0.2,0.3,0.2,0.7,0.2,1.2
			c0,0.6-0.2,1.2-0.5,1.6c-0.3,0.4-0.8,0.7-1.4,0.8l2.1,3.9H383l-1.8-3.7h-1v3.7h-1.4V90.5z M381.2,94.2c0.2,0,0.4,0,0.6,0
			c0.2,0,0.4-0.1,0.6-0.1c0.2-0.1,0.3-0.2,0.4-0.4c0.1-0.2,0.2-0.4,0.2-0.7c0-0.3,0-0.5-0.1-0.6c-0.1-0.2-0.2-0.3-0.4-0.4
			c-0.2-0.1-0.3-0.1-0.5-0.2c-0.2,0-0.4,0-0.6,0h-1.2v2.4H381.2z"/>
		<path class="st4" d="M392.1,94.9c0-0.7,0.1-1.3,0.3-1.9c0.2-0.6,0.5-1.1,0.9-1.5c0.4-0.4,0.8-0.7,1.3-0.9s1.1-0.3,1.7-0.3
			c0.6,0,1.2,0.1,1.7,0.3c0.5,0.2,1,0.5,1.3,0.9c0.4,0.4,0.7,0.9,0.9,1.5c0.2,0.6,0.3,1.2,0.3,1.9c0,0.7-0.1,1.3-0.3,1.9
			c-0.2,0.6-0.5,1-0.9,1.4c-0.4,0.4-0.8,0.7-1.3,0.9c-0.5,0.2-1.1,0.3-1.7,0.4c-0.6,0-1.2-0.1-1.7-0.3c-0.5-0.2-1-0.5-1.3-0.9
			c-0.4-0.4-0.7-0.9-0.9-1.4C392.2,96.2,392.1,95.6,392.1,94.9z M393.6,94.8c0,0.5,0.1,0.9,0.2,1.3c0.1,0.4,0.3,0.7,0.6,1
			c0.2,0.3,0.5,0.5,0.9,0.7c0.3,0.2,0.7,0.2,1.1,0.2c0.4,0,0.8-0.1,1.1-0.2c0.3-0.2,0.6-0.4,0.9-0.7c0.2-0.3,0.4-0.6,0.6-1
			c0.1-0.4,0.2-0.8,0.2-1.3c0-0.4-0.1-0.8-0.2-1.2c-0.1-0.4-0.3-0.7-0.6-1c-0.2-0.3-0.5-0.5-0.9-0.7c-0.3-0.2-0.7-0.2-1.1-0.2
			c-0.4,0-0.8,0.1-1.1,0.2c-0.3,0.2-0.6,0.4-0.9,0.7c-0.2,0.3-0.4,0.6-0.6,1C393.7,93.9,393.6,94.3,393.6,94.8z"/>
		<path class="st4" d="M410.6,95.5l-3-5h1.8l2,3.5l2-3.5h1.7l-3,5v3.7h-1.4V95.5z"/>
		<path class="st4" d="M422.5,90.5h5.3v1.4h-3.9V94h3.7v1.4h-3.7v2.4h4.1v1.4h-5.5V90.5z"/>
		<path class="st4" d="M441.6,92.5c-0.3-0.3-0.6-0.6-0.9-0.7c-0.3-0.1-0.5-0.2-0.8-0.2c-0.4,0-0.8,0.1-1.1,0.2
			c-0.3,0.2-0.6,0.4-0.9,0.7c-0.2,0.3-0.4,0.6-0.6,1c-0.1,0.4-0.2,0.8-0.2,1.2c0,0.5,0.1,0.9,0.2,1.3c0.1,0.4,0.3,0.7,0.6,1
			c0.2,0.3,0.5,0.5,0.9,0.7c0.3,0.2,0.7,0.2,1.1,0.2c0.3,0,0.6-0.1,0.9-0.3c0.3-0.2,0.6-0.4,0.8-0.8l1.2,0.9
			c-0.4,0.5-0.8,0.9-1.3,1.2c-0.5,0.2-1.1,0.4-1.7,0.4c-0.6,0-1.2-0.1-1.7-0.3c-0.5-0.2-1-0.5-1.3-0.9c-0.4-0.4-0.7-0.9-0.9-1.4
			c-0.2-0.6-0.3-1.2-0.3-1.9c0-0.7,0.1-1.3,0.3-1.9c0.2-0.6,0.5-1.1,0.9-1.5c0.4-0.4,0.8-0.7,1.3-0.9c0.5-0.2,1.1-0.3,1.7-0.3
			c0.5,0,1,0.1,1.5,0.3c0.5,0.2,0.9,0.6,1.3,1.1L441.6,92.5z"/>
		<path class="st4" d="M452.2,91.9h-2.4v-1.4h6.3v1.4h-2.4v7.3h-1.4V91.9z"/>
		<path class="st4" d="M463.4,94.9c0-0.7,0.1-1.3,0.3-1.9c0.2-0.6,0.5-1.1,0.9-1.5c0.4-0.4,0.8-0.7,1.3-0.9c0.5-0.2,1.1-0.3,1.7-0.3
			c0.6,0,1.2,0.1,1.7,0.3c0.5,0.2,1,0.5,1.3,0.9c0.4,0.4,0.7,0.9,0.9,1.5c0.2,0.6,0.3,1.2,0.3,1.9c0,0.7-0.1,1.3-0.3,1.9
			c-0.2,0.6-0.5,1-0.9,1.4c-0.4,0.4-0.8,0.7-1.3,0.9c-0.5,0.2-1.1,0.3-1.7,0.4c-0.6,0-1.2-0.1-1.7-0.3c-0.5-0.2-1-0.5-1.3-0.9
			c-0.4-0.4-0.7-0.9-0.9-1.4C463.5,96.2,463.4,95.6,463.4,94.9z M464.8,94.8c0,0.5,0.1,0.9,0.2,1.3c0.1,0.4,0.3,0.7,0.6,1
			c0.2,0.3,0.5,0.5,0.9,0.7c0.3,0.2,0.7,0.2,1.1,0.2c0.4,0,0.8-0.1,1.1-0.2c0.3-0.2,0.6-0.4,0.9-0.7c0.2-0.3,0.4-0.6,0.6-1
			c0.1-0.4,0.2-0.8,0.2-1.3c0-0.4-0.1-0.8-0.2-1.2c-0.1-0.4-0.3-0.7-0.6-1c-0.2-0.3-0.5-0.5-0.9-0.7c-0.3-0.2-0.7-0.2-1.1-0.2
			c-0.4,0-0.8,0.1-1.1,0.2c-0.3,0.2-0.6,0.4-0.9,0.7c-0.2,0.3-0.4,0.6-0.6,1C464.9,93.9,464.8,94.3,464.8,94.8z"/>
		<path class="st4" d="M483.8,92.4c-0.2-0.2-0.4-0.4-0.6-0.5c-0.3-0.1-0.5-0.2-0.8-0.2c-0.2,0-0.3,0-0.5,0.1c-0.2,0-0.3,0.1-0.4,0.2
			c-0.1,0.1-0.2,0.2-0.3,0.4c-0.1,0.1-0.1,0.3-0.1,0.5c0,0.3,0.1,0.5,0.3,0.7s0.4,0.3,0.7,0.4c0.3,0.1,0.6,0.2,0.9,0.3
			c0.3,0.1,0.6,0.3,0.9,0.4c0.3,0.2,0.5,0.4,0.7,0.8c0.2,0.3,0.3,0.7,0.3,1.2c0,0.5-0.1,0.9-0.2,1.2c-0.2,0.3-0.4,0.6-0.6,0.9
			c-0.3,0.2-0.6,0.4-0.9,0.5c-0.4,0.1-0.7,0.2-1.1,0.2c-0.5,0-1-0.1-1.4-0.3c-0.5-0.2-0.9-0.5-1.2-0.9l1.1-1.1
			c0.2,0.3,0.4,0.5,0.7,0.7c0.3,0.2,0.6,0.2,0.9,0.2c0.2,0,0.3,0,0.5-0.1c0.2-0.1,0.3-0.1,0.5-0.2c0.1-0.1,0.2-0.2,0.3-0.4
			c0.1-0.2,0.1-0.3,0.1-0.5c0-0.3-0.1-0.6-0.3-0.7c-0.2-0.2-0.4-0.3-0.7-0.4c-0.3-0.1-0.6-0.2-0.9-0.3c-0.3-0.1-0.6-0.3-0.9-0.4
			c-0.3-0.2-0.5-0.4-0.7-0.7c-0.2-0.3-0.3-0.7-0.3-1.2c0-0.5,0.1-0.8,0.3-1.2c0.2-0.3,0.4-0.6,0.7-0.8c0.3-0.2,0.6-0.4,0.9-0.5
			c0.4-0.1,0.7-0.2,1.1-0.2c0.4,0,0.8,0.1,1.2,0.2c0.4,0.1,0.7,0.4,1.1,0.7L483.8,92.4z"/>
	</g>
</g>
</svg>
